<svg width="83" height="17" viewBox="0 0 83 17" fill="none" xmlns="http://www.w3.org/2000/svg">
    <rect width="15.2693" height="15.2693" transform="translate(0 0.913757)" fill="#219653" />
    <path
        d="M7.63467 11.355L9.95688 10.7332L10.9271 13.8927L7.63467 11.355ZM12.9789 7.27118H8.89121L7.63467 3.20416L6.37813 7.27118H2.29041L5.59876 9.79206L4.34222 13.8591L7.65058 11.3382L9.68649 9.79206L12.9789 7.27118Z"
        fill="white" />
    <rect width="15.2693" height="15.2693" transform="translate(16.7963 0.913757)" fill="#219653" />
    <path
        d="M24.4309 11.355L26.7531 10.7332L27.7234 13.8927L24.4309 11.355ZM29.7752 7.27118H25.6875L24.4309 3.20416L23.1744 7.27118H19.0867L22.395 9.79206L21.1385 13.8591L24.4468 11.3382L26.4828 9.79206L29.7752 7.27118Z"
        fill="white" />
    <rect width="15.2693" height="15.2693" transform="translate(33.5925 0.913757)" fill="#219653" />
    <path
        d="M41.2272 11.355L43.5494 10.7332L44.5197 13.8927L41.2272 11.355ZM46.5715 7.27118H42.4837L41.2272 3.20416L39.9707 7.27118H35.8829L39.1913 9.79206L37.9347 13.8591L41.2431 11.3382L43.279 9.79206L46.5715 7.27118Z"
        fill="white" />
    <rect width="15.2693" height="15.2693" transform="translate(50.3888 0.913757)" fill="#219653" />
    <path
        d="M58.0235 11.355L60.3457 10.7332L61.3159 13.8927L58.0235 11.355ZM63.3677 7.27118H59.28L58.0235 3.20416L56.7669 7.27118H52.6792L55.9876 9.79206L54.731 13.8591L58.0394 11.3382L60.0753 9.79206L63.3677 7.27118Z"
        fill="white" />
    <rect width="15.2693" height="15.2693" transform="translate(67.1851 0.913757)"
        fill="url(#paint0_linear_542_3196)" />
    <path
        d="M74.8197 11.355L77.1419 10.7332L78.1122 13.8927L74.8197 11.355ZM80.164 7.27118H76.0763L74.8197 3.20416L73.5632 7.27118H69.4755L72.7838 9.79206L71.5273 13.8591L74.8356 11.3382L76.8715 9.79206L80.164 7.27118Z"
        fill="white" />
    <defs>
        <linearGradient id="paint0_linear_542_3196" x1="0" y1="7.63467" x2="15.2693" y2="7.63467"
            gradientUnits="userSpaceOnUse">
            <stop stop-color="#219653" />
            <stop offset="0.785168" stop-color="#219653" />
            <stop offset="0.785168" stop-color="#219653" stop-opacity="0" />
            <stop offset="0.787718" stop-color="#D9D9D9" />
            <stop offset="0.9998" stop-color="#D9D9D9" />
            <stop offset="0.9999" stop-color="#219653" stop-opacity="0" />
            <stop offset="1" stop-color="#D9D9D9" />
        </linearGradient>
    </defs>
</svg>